# xmcd CD database file
#
# Track frame offsets:
#	150
#	18982
#	38950
#	61587
#	78115
#	95542
#	119292
#	138292
#	153365
#	178047
#
# Disc length: 2573 seconds
#
# Revision: 3
# Processed by: cddbd v1.5.2PL0 Copyright (c) Steve Scherf et al.
# Submitted via: CDex 1.70beta2
#
DISCID=710a0b0a
DTITLE=Journey - Escape (remastered)
DYEAR=1981
DGENRE=Rock
TTITLE0=Don't Stop Believin'
TTITLE1=Stone In Love
TTITLE2=Who's Crying Now
TTITLE3=Keep On Runnin'
TTITLE4=Still They Ride
TTITLE5=Escape
TTITLE6=Lay It Down
TTITLE7=Dead Or Alive
TTITLE8=Mother, Father
TTITLE9=Open Arms
EXTD=YEAR: 1981
EXTT0=
EXTT1=
EXTT2=
EXTT3=
EXTT4=
EXTT5=
EXTT6=
EXTT7=
EXTT8=
EXTT9=
PLAYORDER=
